<svg width="24" height="44" viewBox="0 0 24 44" fill="none" xmlns="http://www.w3.org/2000/svg">
<path d="M19.832 33.3941C19.547 33.1377 19.1745 33.0003 18.7914 33.0099C18.4082 33.0195 18.0432 33.1755 17.7714 33.4458C17.4996 33.7161 17.3415 34.0802 17.3298 34.4633C17.318 34.8464 17.4533 35.2196 17.708 35.5061L18.752 36.5501H5.6C5.04401 36.5469 4.51171 36.3246 4.11856 35.9315C3.72541 35.5383 3.50315 35.006 3.5 34.4501V5.74601C3.50315 5.19002 3.72541 4.6577 4.11856 4.26457C4.51171 3.87142 5.04401 3.64916 5.6 3.64601H11.6C11.9978 3.64601 12.3794 3.48797 12.6606 3.20666C12.9419 2.92537 13.1 2.54383 13.1 2.146C13.1 1.74818 12.9419 1.36664 12.6606 1.08535C12.3794 0.804036 11.9978 0.645996 11.6 0.645996H5.6C4.24836 0.649176 2.95301 1.18751 1.99725 2.14327C1.0415 3.09901 0.503165 4.39438 0.5 5.74601V34.4501C0.503165 35.8017 1.0415 37.097 1.99725 38.0528C2.95301 39.0086 4.24836 39.5469 5.6 39.5501H18.8L17.756 40.5941C17.5487 40.803 17.4075 41.0684 17.3501 41.357C17.2925 41.6457 17.3213 41.9448 17.4324 42.2174C17.5437 42.4898 17.7327 42.7236 17.9759 42.8894C18.219 43.0553 18.5057 43.1459 18.8 43.1501C18.9969 43.1514 19.1921 43.1129 19.3736 43.0365C19.5552 42.9602 19.7193 42.8478 19.856 42.7061L23.456 39.1061C23.5956 38.9667 23.7065 38.8011 23.7821 38.6189C23.8577 38.4366 23.8967 38.2413 23.8967 38.0441C23.8967 37.8467 23.8577 37.6514 23.7821 37.4691C23.7065 37.2869 23.5956 37.1214 23.456 36.9821L19.832 33.3941Z" fill="#1D1C1D"/>
</svg>
