
<svg width="48" height="48" viewBox="0 0 48 48" fill="none" xmlns="http://www.w3.org/2000/svg">
<path d="M24.0002 0.230103C19.2891 0.230103 14.6837 1.62712 10.7665 4.2445C6.84932 6.86187 3.79625 10.582 1.99337 14.9345C0.190497 19.2871 -0.281219 24.0765 0.637881 28.6971C1.55698 33.3177 3.82561 37.562 7.1569 40.8933C10.4882 44.2246 14.7325 46.4933 19.3532 47.4124C23.9738 48.3316 28.7632 47.8597 33.1157 46.0569C37.4683 44.2541 41.1884 41.201 43.8058 37.2837C46.4232 33.3666 47.8202 28.7612 47.8202 24.0501C47.8139 17.7345 45.3022 11.6795 40.8365 7.21384C36.3707 2.7481 30.3157 0.236456 24.0002 0.230103ZM24.0002 44.8701C19.8824 44.8701 15.8571 43.649 12.4332 41.3613C9.00938 39.0735 6.34083 35.8219 4.76501 32.0175C3.1892 28.2132 2.77689 24.027 3.58023 19.9883C4.38358 15.9496 6.36649 12.2398 9.27822 9.32814C12.19 6.41641 15.8997 4.4335 19.9384 3.63015C23.9771 2.82681 28.1633 3.23912 31.9677 4.81493C35.772 6.39075 39.0237 9.0593 41.3114 12.4831C43.5991 15.9069 44.8202 19.9322 44.8202 24.0501C44.8139 29.5699 42.6183 34.8619 38.7152 38.765C34.812 42.6681 29.5201 44.8637 24.0002 44.8701Z" fill="black"/>
</svg>

