
<svg width="48" height="48" viewBox="0 0 48 48" fill="none" xmlns="http://www.w3.org/2000/svg">
<path d="M42.0001 0.950209H6.00021C5.32889 0.948631 4.66383 1.0793 4.04301 1.33474C3.42219 1.59019 2.85776 1.96541 2.38196 2.43899C1.90614 2.91257 1.52828 3.47522 1.26992 4.09484C1.01156 4.71446 0.877778 5.37889 0.876203 6.05021V42.0502C0.869835 42.7259 0.997847 43.3963 1.2528 44.0222C1.50776 44.648 1.88456 45.2171 2.36132 45.6961C2.83808 46.175 3.40529 46.5546 4.02998 46.8124C4.65467 47.0702 5.32439 47.2014 6.00021 47.1982H42.0001C42.676 47.2014 43.3458 47.0702 43.9704 46.8124C44.5951 46.5546 45.1623 46.175 45.6391 45.6961C46.1158 45.2171 46.4926 44.648 46.7477 44.0222C47.0025 43.3963 47.1306 42.7259 47.1241 42.0502V6.05021C47.1227 5.37889 46.9888 4.71446 46.7305 4.09484C46.4721 3.47522 46.0942 2.91257 45.6185 2.43899C45.1427 1.96541 44.5782 1.59019 43.9573 1.33474C43.3365 1.0793 42.6715 0.948631 42.0001 0.950209ZM44.1241 42.0502C44.1306 42.332 44.0803 42.6122 43.9761 42.8741C43.872 43.1362 43.7161 43.3744 43.518 43.5749C43.3198 43.7753 43.0833 43.9339 42.8224 44.041C42.5617 44.1479 42.282 44.2015 42.0001 44.1982H6.00021C5.71833 44.2015 5.43867 44.1479 5.17791 44.041C4.91715 43.9339 4.68062 43.7753 4.48241 43.5749C4.2842 43.3744 4.12838 43.1362 4.02423 42.8741C3.92009 42.6122 3.86975 42.332 3.87621 42.0502V6.05021C3.87618 5.7724 3.93129 5.49736 4.03832 5.24099C4.14536 4.98463 4.30218 4.75205 4.49975 4.55674C4.6973 4.36141 4.93164 4.20724 5.18919 4.10312C5.44676 3.99901 5.72241 3.94703 6.00021 3.95021H42.0001C42.278 3.94703 42.5536 3.99901 42.8112 4.10312C43.0687 4.20724 43.3031 4.36141 43.5006 4.55674C43.6982 4.75205 43.855 4.98463 43.9622 5.24099C44.0691 5.49736 44.1241 5.7724 44.1241 6.05021V42.0502Z" fill="#1D1C1D"/>
</svg>
