
<svg width="43" height="48" viewBox="0 0 43 48" fill="none" xmlns="http://www.w3.org/2000/svg">
<path d="M37.6959 7.2499C35.8926 5.17657 33.6652 3.51443 31.1644 2.37583C28.6636 1.23721 25.9476 0.64865 23.1999 0.649904C22.3531 0.6521 21.5074 0.708214 20.6679 0.817904C17.4055 1.23616 14.3052 2.48548 11.6644 4.44608C9.02356 6.40667 6.93065 9.01282 5.58635 12.0146C4.24205 15.0164 3.69142 18.3133 3.98725 21.589C4.28308 24.8647 5.41546 28.0094 7.27582 30.7219L1.51582 38.1259C0.849786 38.9789 0.437016 40.0022 0.324651 41.0786C0.212286 42.155 0.404841 43.2415 0.880341 44.2138C1.35583 45.1859 2.09512 46.0049 3.01379 46.5772C3.93245 47.1494 4.99351 47.4518 6.07582 47.4499C6.95003 47.4511 7.81297 47.2528 8.599 46.8701C9.38503 46.4875 10.0734 45.9307 10.6118 45.2419L16.3599 37.9219C19.4955 39.1109 22.8858 39.4664 26.1999 38.9539C29.6122 38.4353 32.8216 37.0066 35.4906 34.8179C38.1594 32.6293 40.1889 29.7616 41.3655 26.5168C42.5421 23.272 42.8223 19.7699 42.1764 16.3793C41.5306 12.9888 39.9828 9.83503 37.6959 7.2499ZM39.3519 22.1059C38.8888 25.5841 37.3156 28.82 34.866 31.3324C32.4163 33.8446 29.2212 35.4993 25.7559 36.0499C24.918 36.1782 24.0715 36.2423 23.2239 36.2419C20.8605 36.2467 18.525 35.7304 16.3839 34.7299C16.203 34.6465 16.0069 34.6016 15.8079 34.5979C15.6163 34.5977 15.4273 34.6409 15.255 34.724C15.0825 34.8071 14.931 34.928 14.8119 35.0779L8.25982 43.4779C7.99082 43.792 7.65524 44.042 7.27745 44.2102C6.89968 44.3783 6.48919 44.4602 6.07582 44.4499C5.55686 44.4494 5.04847 44.3033 4.60846 44.0282C4.16846 43.753 3.81454 43.3598 3.58697 42.8935C3.35939 42.4271 3.26732 41.9062 3.32122 41.39C3.37511 40.8739 3.57281 40.3832 3.89182 39.9739L10.4558 31.5739C10.631 31.3471 10.726 31.0685 10.726 30.7819C10.726 30.4952 10.631 30.2167 10.4558 29.9899C8.80255 27.8782 7.69727 25.3903 7.23848 22.7479C6.77969 20.1055 6.98162 17.3908 7.82629 14.8453C8.67095 12.2999 10.1321 10.0029 12.0796 8.15902C14.0271 6.31513 16.4005 4.98158 18.9882 4.2772C21.576 3.57281 24.2977 3.51946 26.9112 4.12187C29.5245 4.72429 31.9483 5.96378 33.9666 7.72993C35.9848 9.49607 37.5349 11.734 38.4787 14.2444C39.4225 16.7548 39.7306 19.4596 39.3759 22.1179L39.3519 22.1059Z" fill="#1D1C1D"/>
</svg>
